<svg width="11" height="12" viewBox="0 0 11 12" fill="none" xmlns="http://www.w3.org/2000/svg">
<path d="M1 4.33333H9.88889M1 4.33333V9.22233C1 9.84461 1 10.1556 1.1211 10.3933C1.22763 10.6023 1.39748 10.7725 1.60655 10.879C1.844 11 2.155 11 2.77606 11H8.11283C8.73389 11 9.04444 11 9.28189 10.879C9.49095 10.7725 9.66138 10.6023 9.7679 10.3933C9.88889 10.1558 9.88889 9.84527 9.88889 9.22421V4.33333M1 4.33333V3.889C1 3.26672 1 2.95534 1.1211 2.71767C1.22763 2.5086 1.39748 2.33874 1.60655 2.23222C1.84423 2.11111 2.15561 2.11111 2.77789 2.11111H3.22222M9.88889 4.33333V3.88717C9.88889 3.26611 9.88889 2.95511 9.7679 2.71767C9.66138 2.5086 9.49095 2.33874 9.28189 2.23222C9.04421 2.11111 8.7335 2.11111 8.11122 2.11111H7.66667M7.66667 1V2.11111M7.66667 2.11111H3.22222M3.22222 1V2.11111" stroke="#9BA6B2" stroke-linecap="round" stroke-linejoin="round"/>
</svg>
