<svg width="12" height="12" viewBox="0 0 12 12" fill="none" xmlns="http://www.w3.org/2000/svg">
<path d="M4.33329 4.33333V2.77789C4.33329 2.15561 4.33329 1.84423 4.4544 1.60655C4.56092 1.39748 4.73077 1.22763 4.93984 1.1211C5.17752 1 5.48889 1 6.11116 1H9.22223C9.84451 1 10.1555 1 10.3932 1.1211C10.6022 1.22763 10.7724 1.39748 10.8789 1.60655C11 1.84423 11 2.15537 11 2.77765V5.88878C11 6.51106 11 6.8222 10.8789 7.05988C10.7724 7.26895 10.6021 7.43916 10.393 7.54568C10.1555 7.66667 9.8449 7.66667 9.22384 7.66667H7.66659M4.33329 4.33333H2.77787C2.15559 4.33333 1.84422 4.33333 1.60655 4.45444C1.39748 4.56096 1.22763 4.73082 1.1211 4.93989C1 5.17757 1 5.48894 1 6.11122V9.22233C1 9.84461 1 10.1556 1.1211 10.3933C1.22763 10.6023 1.39748 10.7725 1.60655 10.879C1.84399 11 2.15498 11 2.77604 11H5.8908C6.51186 11 6.82242 11 7.05986 10.879C7.26893 10.7725 7.43908 10.6022 7.5456 10.3931C7.66659 10.1557 7.66659 9.845 7.66659 9.22394V7.66667M4.33329 4.33333H5.88894C6.51121 4.33333 6.82219 4.33333 7.05986 4.45444C7.26893 4.56096 7.43908 4.73082 7.5456 4.93989C7.66659 5.17734 7.66659 5.48834 7.66659 6.10941L7.66659 7.66667" stroke="#9BA6B2" stroke-linecap="round" stroke-linejoin="round"/>
</svg>
