<svg width="33" height="16" viewBox="0 0 33 16" fill="none" xmlns="http://www.w3.org/2000/svg">
<g clip-path="url(#clip0_39_47)">
<path d="M33 14.6248C32.9105 15.3293 32.367 15.8907 31.6748 16C28.6411 16 4.37207 16 1.33837 16C0.580226 15.8802 0 15.2183 0 14.4206C0 13.1382 0 2.88114 0 1.59928C0 0.716005 0.70993 0 1.5863 0C4.57007 0 28.4431 0 31.4269 0C32.2338 0 32.9001 0.607803 33 1.39447C33 4.04044 33 13.3021 33 14.6248Z" fill="#F6C700"/>
<path d="M3.97998 12.7849H6.59875V3.08816H3.97998V12.7849Z" fill="black"/>
<path d="M11.5471 8.31825C11.3221 9.79609 11.197 10.6175 11.1723 10.7815C11.0627 11.5726 10.9583 12.261 10.8584 12.8484C10.6317 12.8484 9.50053 12.8484 7.46313 12.8484V3.15164H9.75707L9.7651 9.55429L10.7304 3.15164H12.3644L13.2797 9.69672L13.2884 3.15164H15.5748V12.8484H12.1537L11.5471 8.31825Z" fill="black"/>
<path d="M19.8981 10.8312C19.9268 10.7075 19.9418 10.4271 19.9418 9.98875C19.9418 9.61281 19.9418 6.60525 19.9418 6.2293C19.9418 5.58396 19.8981 5.18869 19.8115 5.04295C19.7242 4.89721 19.4924 4.8249 19.1165 4.8249C19.1165 5.46141 19.1165 10.5535 19.1165 11.19C19.4017 11.19 19.5963 11.1607 19.6996 11.1033C19.8029 11.0454 19.8694 10.9548 19.8981 10.8312ZM21.081 3.25045C21.3926 3.31615 21.6543 3.43208 21.8667 3.59714C22.0784 3.76276 22.2271 3.99185 22.312 4.28499C22.3975 4.57758 22.448 5.15888 22.448 6.02836C22.448 6.36842 22.448 9.09278 22.448 9.43339C22.448 10.3509 22.4107 10.9659 22.3528 11.2783C22.2942 11.5913 22.149 11.8757 21.9166 12.1307C21.6836 12.3857 21.3438 12.569 20.8973 12.6805C20.4502 12.792 19.7214 12.8484 18.4536 12.8484C18.3233 12.8484 17.6725 12.8484 16.5 12.8484V3.15164H19.6726C20.4038 3.17372 20.8732 3.20629 21.081 3.25045Z" fill="black"/>
<path d="M26.6731 4.69959C26.6249 4.57648 26.4137 4.5141 26.2542 4.5141C26.0981 4.5141 25.9942 4.57372 25.9414 4.69352C25.8886 4.81276 25.8628 5.08492 25.8628 5.5111C25.8628 5.76725 25.8628 7.81756 25.8628 8.07371C25.8628 8.51534 25.8857 8.79082 25.9322 8.90067C25.9781 9.00943 26.0791 9.06463 26.2352 9.06463C26.3948 9.06463 26.6089 9.00225 26.6639 8.87694C26.7185 8.75162 26.746 8.48388 26.746 8.07371C26.746 7.90809 26.746 7.08002 26.746 5.58894C26.7294 5.07829 26.7053 4.78185 26.6731 4.69959ZM23.3398 3.23611H25.6975C25.7956 3.60653 25.8496 3.81245 25.8605 3.85385C26.074 3.60543 26.3087 3.41884 26.5664 3.29518C26.8229 3.17097 27.2069 3.10914 27.5042 3.10914C27.9179 3.10914 28.2749 3.21348 28.5762 3.4227C28.877 3.63138 29.0686 3.87869 29.1501 4.163C29.2316 4.44786 29.2724 4.88066 29.2724 5.46252C29.2724 5.73468 29.2724 7.91085 29.2724 8.18301C29.2724 8.76818 29.2586 9.1502 29.2316 9.32961C29.2047 9.50903 29.1243 9.69176 28.9906 9.8789C28.8569 10.066 28.6623 10.2112 28.4075 10.315C28.1527 10.4188 27.8519 10.4707 27.5053 10.4707C27.204 10.4707 26.8183 10.4127 26.5612 10.2985C26.3047 10.1842 26.0717 10.0108 25.8628 9.77843C25.8628 9.98876 25.8628 11.0399 25.8628 12.9328H23.3398V3.23611Z" fill="black"/>
</g>
<defs>
<clipPath id="clip0_39_47">
<rect width="33" height="16" fill="white" transform="matrix(1 0 0 -1 0 16)"/>
</clipPath>
</defs>
</svg>
