<svg width="14" height="14" viewBox="0 0 14 14" fill="none" xmlns="http://www.w3.org/2000/svg">
<path d="M1 7H4.33333M1 7C1 10.3137 3.68629 13 7 13M1 7C1 3.68629 3.68629 1 7 1M4.33333 7H9.66667M4.33333 7C4.33333 10.3137 5.52724 13 7 13M4.33333 7C4.33333 3.68629 5.52724 1 7 1M9.66667 7H13M9.66667 7C9.66667 3.68629 8.47276 1 7 1M9.66667 7C9.66667 10.3137 8.47276 13 7 13M13 7C13 3.68629 10.3137 1 7 1M13 7C13 10.3137 10.3137 13 7 13" stroke="#9BA6B2" stroke-linecap="round" stroke-linejoin="round"/>
</svg>
